<svg version="1.1" id="Layer_1" xmlns="http://www.w3.org/2000/svg" xmlns:xlink="http://www.w3.org/1999/xlink" x="0px" y="0px"
	 width="100%" viewBox="0 0 1024 1024" enable-background="new 0 0 1024 1024" xml:space="preserve">
<path fill="#14374E" opacity="1.000000" stroke="none" 
	d="
M539.000000,1025.000000 
	C359.333344,1025.000000 180.166672,1025.000000 1.000000,1025.000000 
	C1.000000,683.666687 1.000000,342.333344 1.000000,1.000000 
	C342.333344,1.000000 683.666687,1.000000 1025.000000,1.000000 
	C1025.000000,342.333344 1025.000000,683.666687 1025.000000,1025.000000 
	C863.166687,1025.000000 701.333313,1025.000000 539.000000,1025.000000 
M196.859802,830.227356 
	C222.845581,856.307007 251.681671,878.764832 283.288696,897.598206 
	C342.250305,932.731201 405.900482,953.386963 474.354095,959.293152 
	C514.591309,962.764893 554.545837,960.895508 594.221375,953.643738 
	C654.750366,942.580566 710.561157,919.697876 761.724243,885.572937 
	C786.163696,869.272217 808.883667,850.813171 829.956543,829.440430 
	C848.763123,810.687317 865.751892,790.409119 880.855835,768.565308 
	C932.372986,694.059509 958.888062,611.443054 960.872864,520.948914 
	C961.091248,510.990540 960.660156,500.985687 959.932617,491.046143 
	C958.770020,475.161163 957.917908,459.188599 955.512207,443.470764 
	C945.639221,378.964966 922.259644,319.580353 886.181885,265.225281 
	C869.739014,240.452179 851.117615,217.428879 829.456665,196.124817 
	C791.415955,157.992111 747.884766,127.730217 698.879211,105.414162 
	C617.528381,68.368759 532.509766,57.086014 444.279327,70.268837 
	C385.947845,78.984352 331.590027,99.121872 281.153931,129.668152 
	C250.249527,148.385193 221.909897,170.443588 196.023880,196.536896 
	C156.797256,235.919449 125.761261,280.940979 103.283768,331.785675 
	C69.889732,407.323883 58.598244,486.216919 68.386574,568.098755 
	C74.981216,623.264648 91.665619,675.352112 117.962845,724.308716 
	C138.919754,763.323364 164.988846,798.562683 196.859802,830.227356 
z"/>
<path fill="#C140DB" opacity="1.000000" stroke="none" 
	d="
M196.502975,196.194626 
	C221.909897,170.443588 250.249527,148.385193 281.153931,129.668152 
	C331.590027,99.121872 385.947845,78.984352 444.279327,70.268837 
	C532.509766,57.086014 617.528381,68.368759 698.879211,105.414162 
	C747.884766,127.730217 791.415955,157.992111 829.355530,196.541199 
	C782.842529,243.350952 736.421265,289.734924 690.021240,336.140076 
	C631.256348,394.911591 572.508667,453.700317 513.421753,512.383057 
	C511.454620,510.893341 509.712769,509.608978 508.199402,508.096100 
	C405.544006,405.474213 302.906494,302.834412 200.273209,200.190414 
	C198.978943,198.896011 197.758102,197.528183 196.502975,196.194626 
M412.536377,227.747513 
	C409.770966,227.747513 407.005585,227.747513 404.156494,227.747513 
	C404.156494,251.707352 404.156494,274.896332 404.156494,298.187958 
	C476.997131,298.187958 549.384460,298.187958 621.846924,298.187958 
	C621.846924,274.585938 621.846924,251.377823 621.846924,227.747452 
	C552.109009,227.747452 482.819397,227.747452 412.536377,227.747513 
z"/>
<path fill="#40D592" opacity="1.000000" stroke="none" 
	d="
M513.753601,512.481689 
	C572.508667,453.700317 631.256348,394.911591 690.021240,336.140076 
	C736.421265,289.734924 782.842529,243.350952 829.549316,196.779877 
	C851.117615,217.428879 869.739014,240.452179 886.181885,265.225281 
	C922.259644,319.580353 945.639221,378.964966 955.512207,443.470764 
	C957.917908,459.188599 958.770020,475.161163 959.932617,491.046143 
	C960.660156,500.985687 961.091248,510.990540 960.872864,520.948914 
	C958.888062,611.443054 932.372986,694.059509 880.855835,768.565308 
	C865.751892,790.409119 848.763123,810.687317 829.520752,829.333984 
	C828.510620,828.623474 827.949280,828.006409 827.360107,827.417114 
	C723.705811,723.741211 620.050171,620.066528 516.384705,516.401794 
	C515.332886,515.350037 514.150146,514.429077 513.144287,513.334961 
	C513.539490,513.045166 513.704041,512.798096 513.753601,512.481689 
M670.906433,512.500000 
	C670.906433,520.420898 670.906433,528.341797 670.906433,536.385681 
	C672.464172,536.536743 673.273438,536.683777 674.082642,536.683960 
	C744.553345,536.697327 815.024109,536.680786 885.494751,536.759216 
	C888.854065,536.762939 889.746582,535.530579 889.715088,532.366699 
	C889.585938,519.373352 889.449768,506.372681 889.775330,493.386230 
	C889.893372,488.676300 888.363586,487.597961 883.872253,487.606506 
	C814.734497,487.737946 745.596497,487.696136 676.458496,487.710541 
	C674.708191,487.710876 672.957947,487.892212 670.906433,488.005798 
	C670.906433,496.213196 670.906433,503.856598 670.906433,512.500000 
M771.882690,562.234924 
	C762.364319,564.988098 755.728699,571.041138 752.111755,580.174805 
	C748.118042,590.260010 748.705139,600.512207 755.053589,609.132019 
	C762.045532,618.625366 771.622620,624.350159 784.322571,622.044434 
	C802.284485,618.783386 813.148254,603.408203 809.957642,585.638855 
	C806.987732,569.098572 790.254456,558.514709 771.882690,562.234924 
M800.098999,403.392639 
	C789.089539,394.320557 774.499451,393.290009 763.569458,400.812378 
	C751.783264,408.923920 746.974854,423.176331 751.557556,436.415863 
	C756.014954,449.293396 768.490906,457.901642 782.026489,456.889313 
	C794.627014,455.946899 803.719604,449.341400 808.290039,437.648956 
	C813.258606,424.937805 810.451660,413.479645 800.098999,403.392639 
z"/>
<path fill="#4A90E2" opacity="1.000000" stroke="none" 
	d="
M513.421753,512.383057 
	C513.704041,512.798096 513.539490,513.045166 512.820618,513.494263 
	C511.539856,514.574280 510.684113,515.368469 509.859100,516.193481 
	C406.414246,619.635132 302.971436,723.078674 199.532562,826.526245 
	C198.473618,827.585266 197.468201,828.697754 196.437775,829.785278 
	C164.988846,798.562683 138.919754,763.323364 117.962845,724.308716 
	C91.665619,675.352112 74.981216,623.264648 68.386574,568.098755 
	C58.598244,486.216919 69.889732,407.323883 103.283768,331.785675 
	C125.761261,280.940979 156.797256,235.919449 196.263428,196.365753 
	C197.758102,197.528183 198.978943,198.896011 200.273209,200.190414 
	C302.906494,302.834412 405.544006,405.474213 508.199402,508.096100 
	C509.712769,509.608978 511.454620,510.893341 513.421753,512.383057 
M277.280518,546.727905 
	C277.373169,544.954163 277.465790,543.180420 277.583710,540.922241 
	C303.841309,540.922241 329.593964,540.922241 355.449951,540.922241 
	C355.449951,519.365906 355.449951,498.327576 355.449951,476.801666 
	C329.285034,476.801666 303.533539,476.801666 277.093689,476.801666 
	C277.093689,449.609955 277.093689,422.901550 277.093689,396.104675 
	C256.291382,396.104675 236.187149,396.104675 215.384720,396.104675 
	C215.384720,423.085571 215.384720,449.807434 215.384720,477.068115 
	C188.954926,477.068115 163.218033,477.068115 137.408768,477.068115 
	C137.408768,498.664917 137.408768,519.707703 137.408768,541.319580 
	C163.530670,541.319580 189.266708,541.319580 215.537750,541.319580 
	C215.537750,568.493591 215.537750,595.100342 215.537750,621.920715 
	C236.305923,621.920715 256.525635,621.920715 277.280334,621.920715 
	C277.280334,596.924133 277.280334,572.300598 277.280518,546.727905 
z"/>
<path fill="#FFB338" opacity="1.000000" stroke="none" 
	d="
M196.648804,830.006348 
	C197.468201,828.697754 198.473618,827.585266 199.532562,826.526245 
	C302.971436,723.078674 406.414246,619.635132 509.859100,516.193481 
	C510.684113,515.368469 511.539856,514.574280 512.704956,513.606384 
	C514.150146,514.429077 515.332886,515.350037 516.384705,516.401794 
	C620.050171,620.066528 723.705811,723.741211 827.360107,827.417114 
	C827.949280,828.006409 828.510620,828.623474 829.277222,829.512329 
	C808.883667,850.813171 786.163696,869.272217 761.724243,885.572937 
	C710.561157,919.697876 654.750366,942.580566 594.221375,953.643738 
	C554.545837,960.895508 514.591309,962.764893 474.354095,959.293152 
	C405.900482,953.386963 342.250305,932.731201 283.288696,897.598206 
	C251.681671,878.764832 222.845581,856.307007 196.648804,830.006348 
M606.166870,717.337280 
	C593.736572,704.803955 581.306213,692.270569 568.058044,678.912659 
	C549.447632,697.739319 531.231934,716.166565 512.406982,735.210205 
	C493.216522,715.932129 474.344116,696.973572 455.815918,678.360779 
	C441.279144,692.876221 426.918030,707.216309 412.395508,721.717529 
	C431.084564,740.393860 450.022949,759.319336 469.326202,778.609436 
	C450.582886,797.267456 432.202667,815.564026 414.455750,833.230164 
	C429.853058,848.627319 444.762482,863.536560 460.019196,878.793091 
	C477.808990,860.967651 496.027161,842.712891 515.033447,823.668518 
	C534.278137,842.917603 553.288757,861.932556 571.467285,880.115234 
	C585.894226,865.690063 600.220764,851.365356 615.352356,836.235718 
	C596.923950,817.810303 578.013184,798.902588 558.516663,779.409302 
	C576.661377,761.306396 594.900574,743.109314 614.123413,723.930786 
	C611.546570,721.824951 609.107605,719.831726 606.166870,717.337280 
z"/>
<path fill="#FFFEFF" opacity="1.000000" stroke="none" 
	d="
M413.033081,227.747482 
	C482.819397,227.747452 552.109009,227.747452 621.846924,227.747452 
	C621.846924,251.377823 621.846924,274.585938 621.846924,298.187958 
	C549.384460,298.187958 476.997131,298.187958 404.156494,298.187958 
	C404.156494,274.896332 404.156494,251.707352 404.156494,227.747513 
	C407.005585,227.747513 409.770966,227.747513 413.033081,227.747482 
z"/>
<path fill="#FDFFFE" opacity="1.000000" stroke="none" 
	d="
M670.906433,512.000000 
	C670.906433,503.856598 670.906433,496.213196 670.906433,488.005798 
	C672.957947,487.892212 674.708191,487.710876 676.458496,487.710541 
	C745.596497,487.696136 814.734497,487.737946 883.872253,487.606506 
	C888.363586,487.597961 889.893372,488.676300 889.775330,493.386230 
	C889.449768,506.372681 889.585938,519.373352 889.715088,532.366699 
	C889.746582,535.530579 888.854065,536.762939 885.494751,536.759216 
	C815.024109,536.680786 744.553345,536.697327 674.082642,536.683960 
	C673.273438,536.683777 672.464172,536.536743 670.906433,536.385681 
	C670.906433,528.341797 670.906433,520.420898 670.906433,512.000000 
z"/>
<path fill="#FDFFFE" opacity="1.000000" stroke="none" 
	d="
M772.286743,562.151123 
	C790.254456,558.514709 806.987732,569.098572 809.957642,585.638855 
	C813.148254,603.408203 802.284485,618.783386 784.322571,622.044434 
	C771.622620,624.350159 762.045532,618.625366 755.053589,609.132019 
	C748.705139,600.512207 748.118042,590.260010 752.111755,580.174805 
	C755.728699,571.041138 762.364319,564.988098 772.286743,562.151123 
z"/>
<path fill="#FDFFFE" opacity="1.000000" stroke="none" 
	d="
M800.368835,403.626343 
	C810.451660,413.479645 813.258606,424.937805 808.290039,437.648956 
	C803.719604,449.341400 794.627014,455.946899 782.026489,456.889313 
	C768.490906,457.901642 756.014954,449.293396 751.557556,436.415863 
	C746.974854,423.176331 751.783264,408.923920 763.569458,400.812378 
	C774.499451,393.290009 789.089539,394.320557 800.368835,403.626343 
z"/>
<path fill="#FEFFFF" opacity="1.000000" stroke="none" 
	d="
M277.280426,547.202454 
	C277.280334,572.300598 277.280334,596.924133 277.280334,621.920715 
	C256.525635,621.920715 236.305923,621.920715 215.537750,621.920715 
	C215.537750,595.100342 215.537750,568.493591 215.537750,541.319580 
	C189.266708,541.319580 163.530670,541.319580 137.408768,541.319580 
	C137.408768,519.707703 137.408768,498.664917 137.408768,477.068115 
	C163.218033,477.068115 188.954926,477.068115 215.384720,477.068115 
	C215.384720,449.807434 215.384720,423.085571 215.384720,396.104675 
	C236.187149,396.104675 256.291382,396.104675 277.093689,396.104675 
	C277.093689,422.901550 277.093689,449.609955 277.093689,476.801666 
	C303.533539,476.801666 329.285034,476.801666 355.449951,476.801666 
	C355.449951,498.327576 355.449951,519.365906 355.449951,540.922241 
	C329.593964,540.922241 303.841309,540.922241 277.583710,540.922241 
	C277.465790,543.180420 277.373169,544.954163 277.280426,547.202454 
z"/>
<path fill="#FFFFFE" opacity="1.000000" stroke="none" 
	d="
M606.417725,717.587891 
	C609.107605,719.831726 611.546570,721.824951 614.123413,723.930786 
	C594.900574,743.109314 576.661377,761.306396 558.516663,779.409302 
	C578.013184,798.902588 596.923950,817.810303 615.352356,836.235718 
	C600.220764,851.365356 585.894226,865.690063 571.467285,880.115234 
	C553.288757,861.932556 534.278137,842.917603 515.033447,823.668518 
	C496.027161,842.712891 477.808990,860.967651 460.019196,878.793091 
	C444.762482,863.536560 429.853058,848.627319 414.455750,833.230164 
	C432.202667,815.564026 450.582886,797.267456 469.326202,778.609436 
	C450.022949,759.319336 431.084564,740.393860 412.395508,721.717529 
	C426.918030,707.216309 441.279144,692.876221 455.815918,678.360779 
	C474.344116,696.973572 493.216522,715.932129 512.406982,735.210205 
	C531.231934,716.166565 549.447632,697.739319 568.058044,678.912659 
	C581.306213,692.270569 593.736572,704.803955 606.417725,717.587891 
z"/>
</svg>